<?xml version="1.0" encoding="utf-8"?>
<!-- Generator: Adobe Illustrator 16.0.0, SVG Export Plug-In . SVG Version: 6.00 Build 0)  -->
<!DOCTYPE svg PUBLIC "-//W3C//DTD SVG 1.1//EN" "http://www.w3.org/Graphics/SVG/1.1/DTD/svg11.dtd">
<svg version="1.1" id="Ebene_1" xmlns="http://www.w3.org/2000/svg" xmlns:xlink="http://www.w3.org/1999/xlink" x="0px" y="0px"
	 width="199.624px" height="41.818px" viewBox="0 0 199.624 41.818" enable-background="new 0 0 199.624 41.818"
	 xml:space="preserve">
<g>
	<polygon fill="#E4294C" points="34.217,41.158 54.196,41.158 54.196,37.979 38.057,37.979 38.057,21.778 53.417,21.778 
		53.417,18.72 38.057,18.72 38.057,3.78 54.196,3.78 54.196,0.659 34.217,0.659 	"/>
	<path fill="#E4294C" d="M89.176,11.46c0,7.859,0.24,19.799,0.42,25.498c-1.56-2.819-3.24-5.699-4.98-8.459L66.917,0.659h-5.22
		v40.499h3.84V29.219c0-7.56-0.24-19.739-0.42-24.539c1.32,2.64,2.88,5.28,4.74,8.159l17.939,28.319h5.22V0.659h-3.84V11.46z"/>
	<polygon fill="#E4294C" points="98.357,7.2 109.936,7.2 109.936,41.158 117.733,41.158 117.733,7.2 129.251,7.2 129.251,0.659 
		98.357,0.659 	"/>
	<path fill="#E4294C" d="M147.428,0c-10.317,0-17.456,8.04-17.456,21.419c0,12.539,4.259,20.399,16.136,20.399
		c10.439,0,17.517-8.1,17.517-21.479C163.624,6.479,157.746,0,147.428,0z M146.648,34.738c-6.419,0-8.399-5.579-8.399-14.159
		c0-9.119,3.599-13.56,8.639-13.56c6.118,0,8.397,4.92,8.397,13.919C155.286,30.659,151.446,34.738,146.648,34.738z"/>
	<path fill="#E4294C" d="M183.424,0c-10.318,0-17.459,8.04-17.459,21.419c0,12.539,4.26,20.399,16.139,20.399
		c10.441,0,17.52-8.1,17.52-21.479C199.624,6.479,193.745,0,183.424,0z M182.645,34.738c-6.42,0-8.4-5.579-8.4-14.159
		c0-9.119,3.599-13.56,8.64-13.56c6.119,0,8.398,4.92,8.398,13.919C191.284,30.659,187.444,34.738,182.645,34.738z"/>
</g>
<path fill="#E4294C" d="M6.198,37.798c0.96-1.379,1.8-2.699,2.7-4.079L30.55,0.665L2.538,0.659v3.42h11.879
	c4.32,0,7.62-0.06,9.959-0.119c-1.38,1.92-2.52,3.6-3.84,5.64L0,41.159l28.817-0.001v-3.479h-11.58
	C11.778,37.679,7.638,37.679,6.198,37.798z"/>
</svg>
